<svg enable-background="new 0 0 595.3 595.3" viewBox="0 0 595.3 595.3" xmlns="http://www.w3.org/2000/svg"><g fill="#fff"><path d="m146.3 282.3v-32.6c0-3.6-2.9-6.5-6.5-6.5s-6.5 2.9-6.5 6.5v32.6z"/><path d="m133.4 438.5v39c0 3.6 2.9 6.5 6.5 6.5s6.5-2.9 6.5-6.5v-39z"/><path d="m10.6 303.8h43.6v10.9h-30.5v38.1h29.4v10.9h-29.4v40.6h30.8v10.9h-43.9z"/><path d="m68.1 303.8h23.3c6.6 0 11.4 1.4 14.3 4.1s4.7 7.4 5.2 14c.3 2.7.4 6.9.4 12.6s-.7 10.5-2.2 14.4-4.1 6.4-7.9 7.5c2.8.5 4.9 1.9 6.3 4.4s2.4 6.4 3 11.8.9 13.4.9 24 .3 16.8 1 18.6h-13c-.7-1.3-1-13.8-1-37.5 0-8-.8-12.6-2.3-13.9-1.6-1.3-3.9-1.9-7.1-1.9l-7.8-.4v53.7h-13.1zm30.3 27.2c0-8.6-.8-13.5-2.3-14.9-1.5-1.3-3.8-2-6.7-2h-8.2v37.5h8.3c2.5 0 4.4-.5 5.6-1.5s2-2.8 2.5-5.6c.5-2.7.8-7 .8-12.9z"/><path d="m159.4 303.8h12.8l-18 64.5v46.7h-13.1v-46.7l-19.3-64.5h12.7l13.1 45.5h.3z"/><path d="m185 303.8h13.1v111.2h-13.1z"/><path d="m212.6 303.8h13.1v100.4h26.2v10.8h-39.3z"/><path d="m310.4 303.8h16.4v111.2h-11.6v-44.6l1.1-41.6-15.1 86h-11.8l-15.7-86 1.1 41.6v44.6h-11.6v-111.2h16.3l15.9 91.5z"/><path d="m354.8 303.8h15.7l18.4 111.2h-12.3l-3.2-21.2h-20.2l-2.9 21.2h-12.5zm-.1 79.4h17.1l-8.8-58.8h-.2z"/><path d="m397 303.8h34.4v10l-22.9 90.4h22.4v10.9h-36v-11.3l22.9-89.1h-20.8z"/><path d="m444.7 303.8h13.1v100.4h20.5v10.8h-33.6z"/><path d="m500.6 303.8h15.7l18.4 111.2h-12.3l-3.2-21.2h-20.2l-2.9 21.2h-12.5zm-.1 79.4h17.1l-8.8-58.8h-.2z"/><path d="m540.7 303.8h23.3c6.6 0 11.4 1.4 14.3 4.1s4.7 7.4 5.2 14c.3 2.7.4 6.9.4 12.6s-.7 10.5-2.2 14.4-4.1 6.4-7.9 7.5c2.8.5 4.9 1.9 6.3 4.4s2.4 6.4 3 11.8.9 13.4.9 24 .3 16.8 1 18.6h-13c-.7-1.3-1-13.8-1-37.5 0-8-.8-12.6-2.3-13.9-1.6-1.3-3.9-1.9-7.1-1.9l-7.8-.4v53.7h-13.1zm30.3 27.2c0-8.6-.8-13.5-2.3-14.9-1.5-1.3-3.8-2-6.7-2h-8.2v37.5h8.3c2.5 0 4.4-.5 5.6-1.5s2-2.8 2.5-5.6c.5-2.7.8-7 .8-12.9z"/><path d="m198.2 282.3v-113.4c0-3.6-2.9-6.5-6.5-6.5s-6.5 2.9-6.5 6.5v113.4z"/><path d="m185.3 438.5v84.7c0 3.6 2.9 6.5 6.5 6.5s6.5-2.9 6.5-6.5v-84.7z"/><path d="m224.2 282.3v-147.3c0-3.6-2.9-6.5-6.5-6.5s-6.5 2.9-6.5 6.5v147.3z"/><path d="m211.2 438.5v98.2c0 3.6 2.9 6.5 6.5 6.5s6.5-2.9 6.5-6.5v-98.2z"/><path d="m250.1 282.3v-181.9c0-3.6-2.9-6.5-6.5-6.5s-6.5 2.9-6.5 6.5v181.8z"/><path d="m237.2 438.5v107.1c0 3.6 2.9 6.5 6.5 6.5s6.5-2.9 6.5-6.5v-107.1z"/><path d="m263.1 438.5v110.7c0 3.6 2.9 6.5 6.5 6.5s6.5-2.9 6.5-6.5v-110.7z"/><path d="m276.1 282.3v-215.4c0-3.6-2.9-6.5-6.5-6.5s-6.5 2.9-6.5 6.5v215.4z"/><path d="m289.1 438.5v112.8c0 3.6 2.9 6.5 6.5 6.5s6.5-2.9 6.5-6.5v-112.8z"/><path d="m302 282.3v-237.7c0-3.6-2.9-6.5-6.5-6.5s-6.5 2.9-6.5 6.5v237.6z"/><path d="m328 282.3v-215.4c0-3.6-2.9-6.5-6.5-6.5s-6.5 2.9-6.5 6.5v215.4z"/><path d="m315 438.5v110.7c0 3.6 2.9 6.5 6.5 6.5s6.5-2.9 6.5-6.5v-110.7z"/><path d="m353.9 282.3v-181.9c0-3.6-2.9-6.5-6.5-6.5s-6.5 2.9-6.5 6.5v181.8z"/><path d="m340.9 438.5v107.1c0 3.6 2.9 6.5 6.5 6.5s6.5-2.9 6.5-6.5v-107.1z"/><path d="m379.9 282.3v-147.3c0-3.6-2.9-6.5-6.5-6.5s-6.5 2.9-6.5 6.5v147.3z"/><path d="m366.9 438.5v98.2c0 3.6 2.9 6.5 6.5 6.5s6.5-2.9 6.5-6.5v-98.2z"/><path d="m405.8 282.3v-113.4c0-3.6-2.9-6.5-6.5-6.5s-6.5 2.9-6.5 6.5v113.4z"/><path d="m392.8 438.5v84.7c0 3.6 2.9 6.5 6.5 6.5s6.5-2.9 6.5-6.5v-84.7z"/><path d="m431.8 282.3v-75.5c0-3.6-2.9-6.5-6.5-6.5s-6.5 2.9-6.5 6.5v75.5z"/><path d="m418.8 438.5v66c0 3.6 2.9 6.5 6.5 6.5s6.5-2.9 6.5-6.5v-66z"/><path d="m457.7 282.3v-32.6c0-3.6-2.9-6.5-6.5-6.5s-6.5 2.9-6.5 6.5v32.6z"/><path d="m444.7 438.5v39c0 3.6 2.9 6.5 6.5 6.5s6.5-2.9 6.5-6.5v-39z"/><path d="m172.3 282.3v-75.5c0-3.6-2.9-6.5-6.5-6.5s-6.5 2.9-6.5 6.5v75.5z"/><path d="m159.3 438.5v66c0 3.6 2.9 6.5 6.5 6.5s6.5-2.9 6.5-6.5v-66z"/></g></svg>