<?xml version="1.0" encoding="utf-8"?>
<!-- Generator: Adobe Illustrator 21.1.0, SVG Export Plug-In . SVG Version: 6.00 Build 0)  -->
<svg version="1.1" id="Layer_1" xmlns="http://www.w3.org/2000/svg" xmlns:xlink="http://www.w3.org/1999/xlink" x="0px" y="0px"
	 viewBox="0 0 595.3 595.3" style="enable-background:new 0 0 595.3 595.3;" xml:space="preserve">
<style type="text/css">
	.st0{fill:#00568F;}
</style>
<g>
	<path class="st0" d="M146.3,282.3v-32.6c0-3.6-2.9-6.5-6.5-6.5c-3.6,0-6.5,2.9-6.5,6.5v32.6H146.3z"/>
	<path class="st0" d="M133.4,438.5v39c0,3.6,2.9,6.5,6.5,6.5c3.6,0,6.5-2.9,6.5-6.5v-39H133.4z"/>
</g>
<g>
	<g>
		<g>
			<path class="st0" d="M10.6,303.8h43.6v10.9H23.7v38.1h29.4v10.9H23.7v40.6h30.8v10.9H10.6V303.8z"/>
			<path class="st0" d="M68.1,303.8h23.3c6.6,0,11.4,1.4,14.3,4.1c2.9,2.7,4.7,7.4,5.2,14c0.3,2.7,0.4,6.9,0.4,12.6
				s-0.7,10.5-2.2,14.4c-1.5,3.9-4.1,6.4-7.9,7.5c2.8,0.5,4.9,1.9,6.3,4.4c1.4,2.5,2.4,6.4,3,11.8c0.6,5.4,0.9,13.4,0.9,24
				c0,10.6,0.3,16.8,1,18.6h-13c-0.7-1.3-1-13.8-1-37.5c0-8-0.8-12.6-2.3-13.9c-1.6-1.3-3.9-1.9-7.1-1.9l-7.8-0.4v53.7H68.1V303.8z
				 M98.4,331c0-8.6-0.8-13.5-2.3-14.9c-1.5-1.3-3.8-2-6.7-2h-8.2v37.5h8.3c2.5,0,4.4-0.5,5.6-1.5c1.2-1,2-2.8,2.5-5.6
				c0.5-2.7,0.8-7,0.8-12.9V331z"/>
			<path class="st0" d="M159.4,303.8h12.8l-18,64.5v46.7h-13.1v-46.7l-19.3-64.5h12.7l13.1,45.5h0.3L159.4,303.8z"/>
			<path class="st0" d="M185,303.8h13.1v111.2H185V303.8z"/>
			<path class="st0" d="M212.6,303.8h13.1v100.4h26.2v10.8h-39.3V303.8z"/>
			<path class="st0" d="M310.4,303.8h16.4v111.2h-11.6v-44.6l1.1-41.6l-15.1,86h-11.8l-15.7-86l1.1,41.6v44.6h-11.6V303.8h16.3
				l15.9,91.5L310.4,303.8z"/>
			<path class="st0" d="M354.8,303.8h15.7l18.4,111.2h-12.3l-3.2-21.2h-20.2l-2.9,21.2h-12.5L354.8,303.8z M354.7,383.2h17.1
				l-8.8-58.8h-0.2L354.7,383.2z"/>
			<path class="st0" d="M397,303.8h34.4v10l-22.9,90.4h22.4v10.9h-36v-11.3l22.9-89.1H397V303.8z"/>
			<path class="st0" d="M444.7,303.8h13.1v100.4h20.5v10.8h-33.6V303.8z"/>
			<path class="st0" d="M500.6,303.8h15.7l18.4,111.2h-12.3l-3.2-21.2h-20.2l-2.9,21.2h-12.5L500.6,303.8z M500.5,383.2h17.1
				l-8.8-58.8h-0.2L500.5,383.2z"/>
			<path class="st0" d="M540.7,303.8H564c6.6,0,11.4,1.4,14.3,4.1c2.9,2.7,4.7,7.4,5.2,14c0.3,2.7,0.4,6.9,0.4,12.6
				s-0.7,10.5-2.2,14.4c-1.5,3.9-4.1,6.4-7.9,7.5c2.8,0.5,4.9,1.9,6.3,4.4c1.4,2.5,2.4,6.4,3,11.8c0.6,5.4,0.9,13.4,0.9,24
				c0,10.6,0.3,16.8,1,18.6h-13c-0.7-1.3-1-13.8-1-37.5c0-8-0.8-12.6-2.3-13.9c-1.6-1.3-3.9-1.9-7.1-1.9l-7.8-0.4v53.7h-13.1V303.8z
				 M571,331c0-8.6-0.8-13.5-2.3-14.9c-1.5-1.3-3.8-2-6.7-2h-8.2v37.5h8.3c2.5,0,4.4-0.5,5.6-1.5c1.2-1,2-2.8,2.5-5.6
				c0.5-2.7,0.8-7,0.8-12.9V331z"/>
		</g>
	</g>
	<g>
		<path class="st0" d="M198.2,282.3V168.9c0-3.6-2.9-6.5-6.5-6.5c-3.6,0-6.5,2.9-6.5,6.5v113.4H198.2z"/>
		<path class="st0" d="M185.3,438.5v84.7c0,3.6,2.9,6.5,6.5,6.5c3.6,0,6.5-2.9,6.5-6.5v-84.7H185.3z"/>
	</g>
	<g>
		<path class="st0" d="M224.2,282.3V135c0-3.6-2.9-6.5-6.5-6.5c-3.6,0-6.5,2.9-6.5,6.5v147.3H224.2z"/>
		<path class="st0" d="M211.2,438.5v98.2c0,3.6,2.9,6.5,6.5,6.5c3.6,0,6.5-2.9,6.5-6.5v-98.2H211.2z"/>
	</g>
	<g>
		<path class="st0" d="M250.1,282.3V100.4c0-3.6-2.9-6.5-6.5-6.5c-3.6,0-6.5,2.9-6.5,6.5v181.8H250.1z"/>
		<path class="st0" d="M237.2,438.5v107.1c0,3.6,2.9,6.5,6.5,6.5c3.6,0,6.5-2.9,6.5-6.5V438.5H237.2z"/>
	</g>
	<g>
		<path class="st0" d="M263.1,438.5v110.7c0,3.6,2.9,6.5,6.5,6.5s6.5-2.9,6.5-6.5V438.5H263.1z"/>
		<path class="st0" d="M276.1,282.3V66.9c0-3.6-2.9-6.5-6.5-6.5s-6.5,2.9-6.5,6.5v215.4H276.1z"/>
	</g>
	<g>
		<path class="st0" d="M289.1,438.5v112.8c0,3.6,2.9,6.5,6.5,6.5s6.5-2.9,6.5-6.5V438.5H289.1z"/>
		<path class="st0" d="M302,282.3V44.6c0-3.6-2.9-6.5-6.5-6.5s-6.5,2.9-6.5,6.5v237.6H302z"/>
	</g>
	<g>
		<path class="st0" d="M328,282.3V66.9c0-3.6-2.9-6.5-6.5-6.5c-3.6,0-6.5,2.9-6.5,6.5v215.4H328z"/>
		<path class="st0" d="M315,438.5v110.7c0,3.6,2.9,6.5,6.5,6.5c3.6,0,6.5-2.9,6.5-6.5V438.5H315z"/>
	</g>
	<g>
		<path class="st0" d="M353.9,282.3V100.4c0-3.6-2.9-6.5-6.5-6.5c-3.6,0-6.5,2.9-6.5,6.5v181.8H353.9z"/>
		<path class="st0" d="M340.9,438.5v107.1c0,3.6,2.9,6.5,6.5,6.5c3.6,0,6.5-2.9,6.5-6.5V438.5H340.9z"/>
	</g>
	<g>
		<path class="st0" d="M379.9,282.3V135c0-3.6-2.9-6.5-6.5-6.5s-6.5,2.9-6.5,6.5v147.3H379.9z"/>
		<path class="st0" d="M366.9,438.5v98.2c0,3.6,2.9,6.5,6.5,6.5s6.5-2.9,6.5-6.5v-98.2H366.9z"/>
	</g>
	<g>
		<path class="st0" d="M405.8,282.3V168.9c0-3.6-2.9-6.5-6.5-6.5s-6.5,2.9-6.5,6.5v113.4H405.8z"/>
		<path class="st0" d="M392.8,438.5v84.7c0,3.6,2.9,6.5,6.5,6.5s6.5-2.9,6.5-6.5v-84.7H392.8z"/>
	</g>
	<g>
		<path class="st0" d="M431.8,282.3v-75.5c0-3.6-2.9-6.5-6.5-6.5s-6.5,2.9-6.5,6.5v75.5H431.8z"/>
		<path class="st0" d="M418.8,438.5v66c0,3.6,2.9,6.5,6.5,6.5s6.5-2.9,6.5-6.5v-66H418.8z"/>
	</g>
	<g>
		<path class="st0" d="M457.7,282.3v-32.6c0-3.6-2.9-6.5-6.5-6.5c-3.6,0-6.5,2.9-6.5,6.5v32.6H457.7z"/>
		<path class="st0" d="M444.7,438.5v39c0,3.6,2.9,6.5,6.5,6.5c3.6,0,6.5-2.9,6.5-6.5v-39H444.7z"/>
	</g>
	<g>
		<path class="st0" d="M172.3,282.3v-75.5c0-3.6-2.9-6.5-6.5-6.5c-3.6,0-6.5,2.9-6.5,6.5v75.5H172.3z"/>
		<path class="st0" d="M159.3,438.5v66c0,3.6,2.9,6.5,6.5,6.5c3.6,0,6.5-2.9,6.5-6.5v-66H159.3z"/>
	</g>
</g>
</svg>
