<?xml version="1.0" encoding="utf-8"?>
<!-- Generator: Adobe Illustrator 23.0.0, SVG Export Plug-In . SVG Version: 6.00 Build 0)  -->
<svg version="1.1" id="Layer_1" xmlns="http://www.w3.org/2000/svg" xmlns:xlink="http://www.w3.org/1999/xlink" x="0px" y="0px"
	 viewBox="0 0 249.6 120.4" style="enable-background:new 0 0 249.6 120.4;" xml:space="preserve">
<style type="text/css">
	.st0{fill:#FFFFFF;}
</style>
<g>
	<g id="Layer_1-2">
		<g>
			<path class="st0" d="M176.2,45c-1.2-0.6-2.4-1.1-3.7-1.5c-1.3-0.3-2.6-0.6-3.9-0.7l-0.7-0.1c-1.7-0.1-3.4-0.4-5.1-0.8
				c-1.1-0.3-2.2-0.9-3.1-1.6c-0.7-0.6-1.2-1.2-1.7-2c-0.9-1.4-1.4-3.1-1.5-4.8c-0.2-4.8,4.1-9.6,9-9.9c0.2,0,0.5,0,0.7,0
				c1.4,0,2.8,0.4,4,1l0.2,0.1c1.7,1,3.1,2.5,3.9,4.2c0.7,1.3,1.1,2.8,1.2,4.3l0.1,0.9l1.7-0.1c2.5-0.2,4.7-1.7,5.8-3.9
				c1.2-2.2,1.1-4.8-0.1-6.9c-3.7-6.4-10.8-10.1-18.2-9.6C154.7,14.5,146.3,24,146.7,34c0.2,5.3,2.5,10.2,6.5,13.7
				c4.8,4.3,11.8,4.8,14.1,4.9h0.2c2.4,0.3,3.2,0.5,4.1,1c1.3,0.8,2.4,1.8,3.2,3.1c1.2,1.9,1.6,4.2,1.4,6.4
				c-0.5,3.6-3.1,6.6-6.6,7.6c-1.1,0.3-2.2,0.5-3.3,0.5c-2.1,0.1-4.2-0.2-6.2-1c-2-0.8-3.8-2.1-5.2-3.8c-1.7-1.9-2.8-4.2-3.4-6.7
				l-0.2-0.9l-0.9,0.2c-4.1,0.9-6.7,5-5.8,9.1c0.2,1.1,0.7,2.1,1.4,3c0.3,0.5,1.5,1.8,1.5,1.8c2.4,2.8,5.4,5,8.9,6.4
				c3,1.1,6.2,1.7,9.4,1.7h1.1h0.6c1.6-0.1,3.2-0.4,4.7-0.8l0.2,0c0.1,0,12-4,13.7-15.7c0.6-4.5-0.4-9.2-2.8-13.1
				C181.4,48.8,179.1,46.6,176.2,45"/>
			<path class="st0" d="M54.8,19c-1.8-1.8-3.9-3.2-6.2-4.1c-4.8-2-10.3-2-15.1,0c-2.3,1-4.5,2.4-6.2,4.1c-1.8,1.8-3.2,3.9-4.1,6.2
				c-1,2.4-1.6,5-1.6,7.6v80l3.4-1.2c0.3-0.1,6.5-2.4,6.5-8.4V78.7c0.6,0.4,1.2,0.7,1.9,1c9.9,4.3,21.3-0.2,25.6-10.1
				c0-0.1,0.1-0.1,0.1-0.2c1-2.4,1.5-5,1.5-7.6v-29c0-2.6-0.5-5.2-1.5-7.6C58,22.9,56.6,20.8,54.8,19 M50.6,61.7
				c0,1.3-0.2,2.5-0.7,3.7c-0.5,1.1-1.2,2.1-2.1,3c-0.9,0.9-2,1.6-3.1,2.1c-1.1,0.5-2.3,0.8-3.6,0.8c-5.3,0-9.5-4.3-9.6-9.6V32.8
				c0-1.3,0.2-2.5,0.8-3.7c0.5-1.1,1.2-2.2,2.1-3.1c0.9-0.9,1.9-1.6,3-2.1c2.3-1,5-1,7.3,0c1.1,0.5,2.2,1.2,3.1,2.1
				c0.9,0.9,1.6,1.9,2.1,3c0.5,1.2,0.7,2.4,0.7,3.7L50.6,61.7z"/>
			<path class="st0" d="M66.7,23.7c0.7-0.4,1.4-0.7,2.2-0.9c1.3-0.3,2.5-0.9,3.6-1.6c0.2-0.2,0.5-0.3,0.7-0.5
				c1.6-1.6,1.7-4.1,0.1-5.7c-1.6-1.6-4.1-1.7-5.7-0.1l0,0c-0.1,0.1-2.1,1.6-2.9,6.3c-0.2,1.5-0.4,3-0.5,4.5l-0.1,2.2l0.8-2.1
				C65.4,24.9,66,24.2,66.7,23.7"/>
			<path class="st0" d="M96.5,14.8c-0.1,0.1-2.1,1.6-2.9,6.3c-0.2,1.5-0.4,3-0.5,4.5l-0.1,2.2l0.8-2.1c0.4-0.8,1-1.5,1.7-2.1
				c0.7-0.4,1.4-0.7,2.2-0.9c1.3-0.3,2.5-0.9,3.6-1.6c0.2-0.2,0.5-0.3,0.7-0.5c1.6-1.6,1.6-4.2,0-5.7
				C100.6,13.3,98.1,13.3,96.5,14.8"/>
			<path class="st0" d="M226.1,13.8c-6.2,1.7-7.5,5-7.5,7.5v40.9c0,1.3-0.3,2.5-0.8,3.7c-0.5,1.1-1.2,2.1-2,3
				c-0.9,0.9-1.9,1.6-3,2.1c-2.4,1-5,1-7.4,0c-1.1-0.5-2.2-1.2-3.1-2.1c-0.9-0.9-1.6-1.9-2-3c-0.5-1.2-0.8-2.4-0.7-3.7V15.2V13
				l-2.2,0.7l-0.2,0.1c-4.9,1.3-7.5,3.7-7.5,7.3v41.1c0,5.2,2,10.1,5.7,13.8c1.8,1.7,3.9,3.1,6.2,4.1c2.4,1,5,1.5,7.6,1.5
				c2.6,0,5.2-0.5,7.5-1.5c2.3-1,4.4-2.4,6.2-4.1c1.8-1.8,3.2-3.9,4.2-6.2c1-2.4,1.5-5,1.5-7.6V15.2V13l-2.2,0.7L226.1,13.8z"/>
			<path class="st0" d="M117,29c0.5-1.1,1.2-2.1,2-2.9c0.8-0.8,1.8-1.5,2.9-2c2.4-1,5.1-1,7.5,0c1.1,0.5,2.1,1.1,2.9,2l0.2,0.2
				c0.3,0.3,0.6,0.6,0.8,1c0.2,0.2,0.3,0.5,0.5,0.7s0.2,0.4,0.4,0.6c0.1,0.2,0.1,0.2,0.2,0.4c0,0,0.1,0.1,0.1,0.1
				c0.5,1.2,0.7,2.4,0.7,3.7v1.7h1.7c2.4,0,4.7-1.3,6-3.3c1.3-2,1.4-4.6,0.4-6.7c-4.6-9.7-16.3-13.8-26-9.2c-6.2,3-10.4,9-11,15.9
				l-0.1,50.7l3.4-1.2c0.3-0.1,6.5-2.4,6.5-8.4V32.8c0-1.1,0.2-2.3,0.6-3.3c0-0.1,0.1-0.2,0.1-0.3L117,29z"/>
			<path class="st0" d="M100.4,25.1c-6.2,1.7-7.5,5-7.5,7.5v29.3c0,1.3-0.2,2.5-0.8,3.7c-0.5,1.1-1.2,2.1-2,2.9
				c-0.9,0.9-1.9,1.6-3,2.1c-2.4,1-5,1-7.4,0c-1.1-0.5-2.2-1.2-3.1-2.1c-0.9-0.9-1.6-1.9-2.1-3c-0.5-1.1-0.7-2.4-0.7-3.6V26.6v-2.3
				l-2.3,0.8c-4.9,1.3-7.5,3.7-7.5,7.3v29.4c0,5.2,2,10.1,5.7,13.8c1.8,1.7,3.9,3.1,6.2,4.1c2.4,1,5,1.5,7.6,1.5
				c2.6,0,5.2-0.5,7.5-1.5c2.3-1,4.4-2.4,6.2-4.1c1.8-1.8,3.2-3.9,4.2-6.2c1-2.4,1.5-5,1.5-7.6V26.6v-2.3l-2.1,0.7L100.4,25.1z"/>
		</g>
	</g>
</g>
</svg>
